<svg width="67" height="67" viewBox="0 0 67 67" fill="none" xmlns="http://www.w3.org/2000/svg">
<path d="M16.0802 23.9154V43.3092L32.8814 53.0061L49.6826 43.3092V23.9154L32.8814 14.2184L16.0802 23.9154Z" stroke="white" stroke-width="2" stroke-miterlimit="10" stroke-linecap="round"/>
<path d="M16.0802 23.9154L32.8814 33.6123L49.6826 23.9154" stroke="white" stroke-width="2" stroke-miterlimit="10" stroke-linecap="round"/>
<path d="M32.8814 53.0061V33.6123" stroke="white" stroke-width="2" stroke-miterlimit="10" stroke-linecap="round"/>
<path d="M24.9503 19.3833L41.282 28.9884V34.1737" stroke="white" stroke-width="2" stroke-miterlimit="10" stroke-linecap="round"/>
<path d="M22.4597 41.0942L28.6045 44.5443" stroke="white" stroke-width="2" stroke-miterlimit="10" stroke-linecap="round"/>
<path d="M6.78136 51.0974C3.45379 46.0448 1.5144 40.002 1.5144 33.5C1.5144 25.0075 4.82157 17.2806 10.2314 11.5543" stroke="white" stroke-width="2" stroke-miterlimit="10" stroke-linecap="round"/>
<path d="M50.9687 60.3145C45.9467 63.5911 39.9551 65.4998 33.5041 65.4998C24.6747 65.4998 16.6722 61.9171 10.8847 56.1296" stroke="white" stroke-width="2" stroke-miterlimit="10" stroke-linecap="round"/>
<path d="M60.0532 15.6475C63.493 20.7511 65.4936 26.8959 65.4936 33.5102C65.4936 42.3395 61.9109 50.342 56.1234 56.1295" stroke="white" stroke-width="2" stroke-miterlimit="10" stroke-linecap="round"/>
<path d="M14.9064 7.47142C20.1529 3.71514 26.5733 1.51036 33.504 1.51036C42.1904 1.51036 50.0705 4.97063 55.8376 10.5948" stroke="white" stroke-width="2" stroke-miterlimit="10" stroke-linecap="round"/>
<path d="M2.31055 11.095H10.7826V19.5773" stroke="white" stroke-width="2" stroke-miterlimit="10" stroke-linecap="round"/>
<path d="M56.1234 2.62296V11.095H47.6513" stroke="white" stroke-width="2" stroke-miterlimit="10" stroke-linecap="round"/>
<path d="M64.0034 56.5072H55.5211V48.025" stroke="white" stroke-width="2" stroke-miterlimit="10" stroke-linecap="round"/>
<path d="M10.9459 64.5097V56.0275H19.4282" stroke="white" stroke-width="2" stroke-miterlimit="10" stroke-linecap="round"/>
</svg>
