<svg width="67" height="67" viewBox="0 0 67 67" fill="none" xmlns="http://www.w3.org/2000/svg">
<path fill-rule="evenodd" clip-rule="evenodd" d="M46.3358 5.29308C40.2549 2.58358 33.461 1.91235 26.9674 3.37949C20.4739 4.84662 14.6285 8.37352 10.3032 13.4342C5.9778 18.4948 3.4042 24.8181 2.96617 31.4609C2.52815 38.1038 4.24917 44.7102 7.87257 50.295C11.496 55.8798 16.8276 60.1437 23.0723 62.4508C29.317 64.7579 36.1402 64.9846 42.5242 63.097C48.9083 61.2094 54.5111 57.3088 58.4972 51.9768C62.4832 46.6448 64.6389 40.1671 64.6427 33.5098V30.5952C64.6427 30.1456 65.0072 29.7811 65.4569 29.7811C65.9065 29.7811 66.271 30.1456 66.271 30.5952V33.5103C66.267 40.5187 63.9976 47.3385 59.8013 52.9517C55.605 58.5649 49.7066 62.6713 42.9859 64.6584C36.2651 66.6456 29.0821 66.4069 22.508 63.9782C15.934 61.5494 10.3211 57.0606 6.50662 51.1812C2.69211 45.3019 0.880318 38.347 1.34145 31.3538C1.80257 24.3606 4.51192 17.7038 9.0654 12.3763C13.6189 7.0487 19.7725 3.33578 26.6086 1.79126C33.4447 0.246747 40.5969 0.953385 46.9985 3.80579C47.4092 3.98879 47.5938 4.47008 47.4108 4.88079C47.2278 5.29149 46.7465 5.47608 46.3358 5.29308Z" fill="white" stroke="white" stroke-linecap="round" stroke-linejoin="round"/>
<path fill-rule="evenodd" clip-rule="evenodd" d="M66.0322 7.5857C66.3503 7.90348 66.3506 8.41896 66.0328 8.73705L34.347 40.4546C34.1943 40.6074 33.9872 40.6933 33.7712 40.6933C33.5552 40.6934 33.3481 40.6076 33.1953 40.4549L23.6896 30.9491C23.3716 30.6312 23.3716 30.1157 23.6896 29.7978C24.0075 29.4798 24.523 29.4798 24.8409 29.7978L33.7707 38.7276L64.8809 7.58628C65.1987 7.26818 65.7142 7.26793 66.0322 7.5857Z" fill="white" stroke="white" stroke-linecap="round" stroke-linejoin="round"/>
</svg>
