<svg width="67" height="68" viewBox="0 0 67 68" fill="none" xmlns="http://www.w3.org/2000/svg">
<path d="M39.33 33.6961C39.3601 30.5552 36.8389 27.9846 33.6986 27.9544C30.5584 27.9243 27.9883 30.446 27.9581 33.5869C27.928 36.7278 30.4492 39.2984 33.5895 39.3286C36.7297 39.3587 39.2998 36.837 39.33 33.6961Z" stroke="white" stroke-width="2" stroke-miterlimit="10"/>
<path d="M39.3312 7.40721C39.3614 4.26633 36.8401 1.69569 33.6999 1.66554C30.5596 1.63539 27.9895 4.15714 27.9593 7.29802C27.9292 10.4389 30.4504 13.0095 33.5907 13.0397C36.7309 13.0698 39.3011 10.5481 39.3312 7.40721Z" stroke="white" stroke-width="2" stroke-miterlimit="10"/>
<path d="M39.3287 60.7061C39.3589 57.5652 36.8376 54.9945 33.6974 54.9644C30.5571 54.9342 27.987 57.456 27.9569 60.5969C27.9267 63.7378 30.448 66.3084 33.5882 66.3385C36.7285 66.3687 39.2986 63.8469 39.3287 60.7061Z" stroke="white" stroke-width="2" stroke-miterlimit="10"/>
<path d="M12.5427 33.6949C12.5729 30.554 10.0516 27.9834 6.91135 27.9532C3.7711 27.9231 1.20098 30.4448 1.17084 33.5857C1.14069 36.7266 3.66193 39.2972 6.80219 39.3274C9.94244 39.3575 12.5126 36.8358 12.5427 33.6949Z" stroke="white" stroke-width="2" stroke-miterlimit="10"/>
<path d="M12.5439 7.40597C12.5741 4.26509 10.0528 1.69446 6.91256 1.66431C3.77231 1.63415 1.20219 4.1559 1.17204 7.29679C1.1419 10.4377 3.66314 13.0083 6.8034 13.0385C9.94365 13.0686 12.5138 10.5469 12.5439 7.40597Z" stroke="white" stroke-width="2" stroke-miterlimit="10"/>
<path d="M12.5415 60.7048C12.5716 57.5639 10.0504 54.9933 6.91012 54.9632C3.76987 54.933 1.19975 57.4548 1.1696 60.5956C1.13946 63.7365 3.6607 66.3072 6.80096 66.3373C9.94121 66.3675 12.5113 63.8457 12.5415 60.7048Z" stroke="white" stroke-width="2" stroke-miterlimit="10"/>
<path d="M65.8408 33.6973C65.8709 30.5564 63.3497 27.9858 60.2094 27.9557C57.0691 27.9255 54.499 30.4473 54.4689 33.5881C54.4387 36.729 56.96 39.2997 60.1002 39.3298C63.2405 39.36 65.8106 36.8382 65.8408 33.6973Z" stroke="white" stroke-width="2" stroke-miterlimit="10"/>
<path d="M65.842 7.40517C65.8721 4.26429 63.3509 1.69365 60.2106 1.6635C57.0704 1.63335 54.5003 4.1551 54.4701 7.29598C54.44 10.4369 56.9612 13.0075 60.1015 13.0377C63.2417 13.0678 65.8118 10.5461 65.842 7.40517Z" stroke="white" stroke-width="2" stroke-miterlimit="10"/>
<path d="M65.8428 60.704C65.8729 57.5631 63.3517 54.9925 60.2115 54.9624C57.0712 54.9322 54.5011 57.454 54.4709 60.5948C54.4408 63.7357 56.962 66.3064 60.1023 66.3365C63.2425 66.3667 65.8127 63.8449 65.8428 60.704Z" stroke="white" stroke-width="2" stroke-miterlimit="10"/>
<path d="M11.0635 11.7594L29.2926 29.9889" stroke="white" stroke-width="2" stroke-miterlimit="10"/>
<path d="M37.3002 38.0014L56.0803 56.7852" stroke="white" stroke-width="2" stroke-miterlimit="10"/>
<path d="M11.0635 56.7852L29.736 38.109" stroke="white" stroke-width="2" stroke-miterlimit="10"/>
<path d="M38.0827 29.7606L56.0803 11.7594" stroke="white" stroke-width="2" stroke-miterlimit="10"/>
<path d="M12.7198 33.7782H27.5189" stroke="white" stroke-width="2" stroke-miterlimit="10"/>
<path d="M39.4488 33.7782H54.424" stroke="white" stroke-width="2" stroke-miterlimit="10"/>
<path d="M33.5735 54.6362V39.8341" stroke="white" stroke-width="2" stroke-miterlimit="10"/>
<path d="M33.5735 27.9018V12.9236" stroke="white" stroke-width="2" stroke-miterlimit="10"/>
</svg>
