<svg width="76" height="67" viewBox="0 0 76 67" fill="none" xmlns="http://www.w3.org/2000/svg">
<path d="M55.8185 54.432C50.0877 60.9316 41.7685 65.0184 32.5102 65.0184C15.2282 65.0184 1.21466 50.7704 1.21466 33.1917C1.21466 15.6129 15.2282 1.36827 32.5136 1.36827C45.4519 1.36827 56.5585 9.35618 61.3237 20.7458" stroke="white" stroke-width="2" stroke-linecap="round" stroke-linejoin="round"/>
<path d="M31.1331 49.2383C26.1655 49.0966 23.5905 47.227 22.2565 46.245L23.2686 43.8118C24.3736 44.6994 26.9951 46.7107 31.6375 46.7107C36.2799 46.7107 38.8118 44.885 38.8118 41.3787C38.8118 38.058 36.5122 36.4685 31.2692 34.5517C25.9797 32.5876 22.8073 30.7146 22.8073 25.8989C22.8073 21.549 26.1655 18.8829 31.1331 18.5556V14.2056H33.4792V18.5556C37.4347 18.8357 39.5054 20.3813 40.6535 21.2216L39.5485 23.513C38.4004 22.7166 36.2368 21.0799 32.3277 21.0799C28.4187 21.0799 25.6113 22.5782 25.6113 25.7099C25.6113 29.4052 28.0039 30.529 33.383 32.3986C38.855 34.3154 41.6623 36.6541 41.6623 41.2842C41.6623 45.9142 38.6725 48.6275 33.4759 49.1405V53.5849H31.1298V49.2349L31.1331 49.2383Z" fill="white"/>
<path d="M58.3903 33.2408V42.5456H51.1422L63.2234 54.8349L74.9622 42.5456H68.0595V25.8666H60.8084" stroke="white" stroke-width="2" stroke-linecap="round" stroke-linejoin="round"/>
</svg>
