<svg width="1521" height="321" viewBox="0 0 1521 321" fill="none" xmlns="http://www.w3.org/2000/svg">
<rect x="1167.81" y="137.665" width="353.194" height="183.335" fill="#3772FF"/>
<path d="M1209.86 217.72C1209.86 211.96 1214.45 209.152 1219.63 209.152C1223.42 209.152 1224.91 210.232 1225.99 210.928L1224.98 213.112C1224.1 212.512 1222.73 211.528 1219.68 211.528C1215.7 211.528 1212.58 213.52 1212.58 217.648C1212.58 221.92 1215.34 223.84 1219.34 223.84C1222.61 223.84 1224.41 222.76 1225.06 222.328L1225.92 224.488C1225.18 225.04 1223.02 226.288 1219.15 226.288C1213.78 226.288 1209.86 223.744 1209.86 217.72ZM1235.41 214.024V216.328C1235.39 216.304 1235.05 216.304 1234.76 216.304C1232.51 216.304 1231.31 217.384 1230.73 218.464V226H1228.11V214.24H1230.61V216.376H1230.66C1231.21 215.248 1232.43 214.024 1235.41 214.024ZM1236.24 222.712C1236.24 220.36 1238.35 219.088 1241.83 219.088C1243.22 219.088 1244.37 219.208 1244.8 219.256V219.088C1244.8 217.216 1243.96 216.16 1241.68 216.16C1239.48 216.16 1238.08 217.072 1237.44 217.696L1236.43 215.896C1237.2 215.2 1239.02 213.952 1242 213.952C1245.86 213.952 1247.4 216.04 1247.4 219.208V226H1244.92V224.584H1244.88C1244.52 225.04 1243.39 226.288 1240.46 226.288C1237.56 226.288 1236.24 224.8 1236.24 222.712ZM1238.85 222.52C1238.85 223.504 1239.48 224.152 1241.11 224.152C1243.44 224.152 1244.47 223 1244.8 222.592V221.032C1244.25 221.008 1243.41 220.96 1242.14 220.96C1239.79 220.96 1238.85 221.56 1238.85 222.52ZM1259.74 215.176L1258.85 217.216C1258.15 216.784 1256.86 216.088 1255.01 216.088C1253.3 216.088 1252.51 216.544 1252.51 217.264C1252.51 217.984 1252.87 218.368 1255.66 218.896C1258.42 219.424 1260.07 220.36 1260.07 222.544C1260.07 224.896 1258.2 226.288 1254.98 226.288C1252.01 226.288 1250.45 225.28 1249.85 224.848L1250.74 222.688C1251.31 223.12 1252.58 224.08 1254.94 224.08C1256.81 224.08 1257.5 223.504 1257.5 222.808C1257.5 222.136 1257.17 221.584 1254.41 221.032C1251.67 220.48 1250.06 219.712 1250.06 217.384C1250.06 215.296 1251.98 213.952 1255.01 213.952C1257.6 213.952 1258.97 214.72 1259.74 215.176ZM1278.84 215.176L1277.95 217.216C1277.25 216.784 1275.96 216.088 1274.11 216.088C1272.41 216.088 1271.61 216.544 1271.61 217.264C1271.61 217.984 1271.97 218.368 1274.76 218.896C1277.52 219.424 1279.17 220.36 1279.17 222.544C1279.17 224.896 1277.3 226.288 1274.09 226.288C1271.11 226.288 1269.55 225.28 1268.95 224.848L1269.84 222.688C1270.41 223.12 1271.69 224.08 1274.04 224.08C1275.91 224.08 1276.61 223.504 1276.61 222.808C1276.61 222.136 1276.27 221.584 1273.51 221.032C1270.77 220.48 1269.17 219.712 1269.17 217.384C1269.17 215.296 1271.09 213.952 1274.11 213.952C1276.7 213.952 1278.07 214.72 1278.84 215.176ZM1294.39 220.12C1294.39 224.272 1291.25 226.288 1287.67 226.288C1284.07 226.288 1280.93 224.272 1280.93 220.12C1280.93 215.968 1284.07 213.952 1287.67 213.952C1291.25 213.952 1294.39 215.968 1294.39 220.12ZM1291.73 220.12C1291.73 217.576 1290.02 216.208 1287.67 216.208C1285.29 216.208 1283.59 217.576 1283.59 220.12C1283.59 222.664 1285.29 223.984 1287.67 223.984C1290.02 223.984 1291.73 222.664 1291.73 220.12ZM1299.52 208.96V226H1296.93V208.96H1299.52ZM1305.57 208.96V226H1302.98V208.96H1305.57ZM1311.69 209.8V212.368H1308.95V209.8H1311.69ZM1311.62 214.24V226H1309.02V214.24H1311.62ZM1325.66 215.152L1324.77 217.168C1324.24 216.832 1323.18 216.208 1321.41 216.208C1318.94 216.208 1316.82 217.384 1316.82 220C1316.82 222.808 1318.67 223.984 1321.19 223.984C1323.18 223.984 1324.31 223.36 1324.86 223.024L1325.58 225.112C1324.86 225.568 1323.4 226.288 1320.81 226.288C1317.09 226.288 1314.16 224.464 1314.16 220.144C1314.16 215.8 1317.69 213.952 1321.17 213.952C1323.69 213.952 1324.91 214.648 1325.66 215.152ZM1330.63 209.8V212.368H1327.89V209.8H1330.63ZM1330.55 214.24V226H1327.96V214.24H1330.55ZM1341.21 214.24V216.376H1337.27V221.104C1337.27 223.264 1337.97 223.936 1339.72 223.936C1340.44 223.936 1340.97 223.792 1341.21 223.672V225.88C1340.95 226 1340.25 226.216 1339.12 226.216C1336.55 226.216 1334.68 225.232 1334.68 221.32V216.376H1332.83V214.24H1334.68V211.6H1337.27V214.24H1341.21ZM1355.64 214.24V226H1353.15V224.536H1353.1C1352.57 225.112 1351.16 226.288 1348.52 226.288C1345.44 226.288 1343.36 224.68 1343.36 220.936V214.24H1345.97V220.312C1345.97 223 1347.12 223.96 1349.38 223.96C1351.2 223.96 1352.48 222.952 1353.03 222.376V214.24H1355.64ZM1370.95 208.96V226H1368.45V224.536H1368.4C1368 224.992 1366.82 226.288 1363.92 226.288C1360.53 226.288 1358.04 224.176 1358.04 220.096C1358.04 216.088 1360.84 213.952 1364.13 213.952C1366.72 213.952 1367.85 215.008 1368.28 215.416H1368.33V208.96H1370.95ZM1360.7 220.024C1360.7 222.664 1362.38 223.984 1364.64 223.984C1366.96 223.984 1367.9 222.928 1368.33 222.376V217.912C1367.83 217.312 1366.84 216.208 1364.66 216.208C1362.4 216.208 1360.7 217.528 1360.7 220.024ZM1219.78 244.176L1218.89 246.216C1218.19 245.784 1216.9 245.088 1215.05 245.088C1213.34 245.088 1212.55 245.544 1212.55 246.264C1212.55 246.984 1212.91 247.368 1215.7 247.896C1218.46 248.424 1220.11 249.36 1220.11 251.544C1220.11 253.896 1218.24 255.288 1215.02 255.288C1212.05 255.288 1210.49 254.28 1209.89 253.848L1210.78 251.688C1211.35 252.12 1212.62 253.08 1214.98 253.08C1216.85 253.08 1217.54 252.504 1217.54 251.808C1217.54 251.136 1217.21 250.584 1214.45 250.032C1211.71 249.48 1210.1 248.712 1210.1 246.384C1210.1 244.296 1212.02 242.952 1215.05 242.952C1217.64 242.952 1219.01 243.72 1219.78 244.176ZM1235.33 249.12C1235.33 253.272 1232.18 255.288 1228.61 255.288C1225.01 255.288 1221.86 253.272 1221.86 249.12C1221.86 244.968 1225.01 242.952 1228.61 242.952C1232.18 242.952 1235.33 244.968 1235.33 249.12ZM1232.66 249.12C1232.66 246.576 1230.96 245.208 1228.61 245.208C1226.23 245.208 1224.53 246.576 1224.53 249.12C1224.53 251.664 1226.23 252.984 1228.61 252.984C1230.96 252.984 1232.66 251.664 1232.66 249.12ZM1249.99 237.96V255H1247.49V253.536H1247.44C1247.03 253.992 1245.86 255.288 1242.95 255.288C1239.57 255.288 1237.07 253.176 1237.07 249.096C1237.07 245.088 1239.88 242.952 1243.17 242.952C1245.76 242.952 1246.89 244.008 1247.32 244.416H1247.37V237.96H1249.99ZM1239.74 249.024C1239.74 251.664 1241.42 252.984 1243.67 252.984C1246 252.984 1246.94 251.928 1247.37 251.376V246.912C1246.87 246.312 1245.88 245.208 1243.7 245.208C1241.44 245.208 1239.74 246.528 1239.74 249.024ZM1252.64 251.712C1252.64 249.36 1254.75 248.088 1258.23 248.088C1259.63 248.088 1260.78 248.208 1261.21 248.256V248.088C1261.21 246.216 1260.37 245.16 1258.09 245.16C1255.88 245.16 1254.49 246.072 1253.84 246.696L1252.83 244.896C1253.6 244.2 1255.43 242.952 1258.4 242.952C1262.27 242.952 1263.8 245.04 1263.8 248.208V255H1261.33V253.584H1261.28C1260.92 254.04 1259.79 255.288 1256.87 255.288C1253.96 255.288 1252.64 253.8 1252.64 251.712ZM1255.26 251.52C1255.26 252.504 1255.88 253.152 1257.51 253.152C1259.84 253.152 1260.87 252 1261.21 251.592V250.032C1260.66 250.008 1259.82 249.96 1258.55 249.96C1256.19 249.96 1255.26 250.56 1255.26 251.52ZM1269.69 237.96V255H1267.1V237.96H1269.69ZM1272.23 249.048C1272.23 245.16 1275.13 242.952 1278.66 242.952C1282.38 242.952 1284.37 245.208 1284.37 248.832V249.912H1274.87C1275.13 251.808 1276.48 252.984 1279.14 252.984C1281.52 252.984 1282.98 252.024 1283.41 251.688L1284.3 253.608C1283.65 254.112 1281.85 255.288 1278.61 255.288C1274.65 255.288 1272.23 252.984 1272.23 249.048ZM1278.59 245.112C1276.6 245.112 1275.09 246.12 1274.85 248.016H1281.88C1281.81 246.288 1280.58 245.112 1278.59 245.112ZM1296.09 244.176L1295.2 246.216C1294.5 245.784 1293.21 245.088 1291.36 245.088C1289.66 245.088 1288.86 245.544 1288.86 246.264C1288.86 246.984 1289.22 247.368 1292.01 247.896C1294.77 248.424 1296.42 249.36 1296.42 251.544C1296.42 253.896 1294.55 255.288 1291.34 255.288C1288.36 255.288 1286.8 254.28 1286.2 253.848L1287.09 251.688C1287.66 252.12 1288.94 253.08 1291.29 253.08C1293.16 253.08 1293.86 252.504 1293.86 251.808C1293.86 251.136 1293.52 250.584 1290.76 250.032C1288.02 249.48 1286.42 248.712 1286.42 246.384C1286.42 244.296 1288.34 242.952 1291.36 242.952C1293.95 242.952 1295.32 243.72 1296.09 244.176ZM1308.73 237.96V255H1306.14V237.96H1308.73ZM1324.74 249.12C1324.74 253.272 1321.6 255.288 1318.02 255.288C1314.42 255.288 1311.28 253.272 1311.28 249.12C1311.28 244.968 1314.42 242.952 1318.02 242.952C1321.6 242.952 1324.74 244.968 1324.74 249.12ZM1322.08 249.12C1322.08 246.576 1320.37 245.208 1318.02 245.208C1315.64 245.208 1313.94 246.576 1313.94 249.12C1313.94 251.664 1315.64 252.984 1318.02 252.984C1320.37 252.984 1322.08 251.664 1322.08 249.12ZM1334.41 243.024V245.328C1334.39 245.304 1334.05 245.304 1333.76 245.304C1331.51 245.304 1330.31 246.384 1329.73 247.464V255H1327.11V243.24H1329.61V245.376H1329.66C1330.21 244.248 1331.43 243.024 1334.41 243.024ZM1334.83 249.048C1334.83 245.16 1337.74 242.952 1341.26 242.952C1344.98 242.952 1346.98 245.208 1346.98 248.832V249.912H1337.47C1337.74 251.808 1339.08 252.984 1341.74 252.984C1344.12 252.984 1345.58 252.024 1346.02 251.688L1346.9 253.608C1346.26 254.112 1344.46 255.288 1341.22 255.288C1337.26 255.288 1334.83 252.984 1334.83 249.048ZM1341.19 245.112C1339.2 245.112 1337.69 246.12 1337.45 248.016H1344.48C1344.41 246.288 1343.18 245.112 1341.19 245.112ZM1351.97 243.24V244.704H1352.02C1352.59 244.056 1353.99 242.952 1356.39 242.952C1358.35 242.952 1359.82 243.6 1360.66 244.992C1361.43 244.176 1363.06 242.952 1365.58 242.952C1368.72 242.952 1370.69 244.512 1370.69 248.28V255H1368.1V248.904C1368.1 246.216 1366.8 245.232 1364.74 245.232C1363.06 245.232 1361.91 246.096 1361.28 246.72C1361.35 247.176 1361.4 247.704 1361.4 248.256V255H1358.81V248.904C1358.81 246.216 1357.54 245.232 1355.47 245.232C1353.84 245.232 1352.67 246.24 1352.09 246.864V255H1349.47V243.24H1351.97Z" fill="white"/>
<path d="M1425.08 219.915V239.309L1441.88 249.006L1458.68 239.309V219.915L1441.88 210.218L1425.08 219.915Z" stroke="white" stroke-width="2" stroke-miterlimit="10" stroke-linecap="round"/>
<path d="M1425.08 219.915L1441.88 229.612L1458.68 219.915" stroke="white" stroke-width="2" stroke-miterlimit="10" stroke-linecap="round"/>
<path d="M1441.88 249.006V229.612" stroke="white" stroke-width="2" stroke-miterlimit="10" stroke-linecap="round"/>
<path d="M1433.95 215.383L1450.28 224.988V230.174" stroke="white" stroke-width="2" stroke-miterlimit="10" stroke-linecap="round"/>
<path d="M1431.46 237.094L1437.6 240.544" stroke="white" stroke-width="2" stroke-miterlimit="10" stroke-linecap="round"/>
<path d="M1415.78 247.097C1412.45 242.045 1410.51 236.002 1410.51 229.5C1410.51 221.008 1413.82 213.281 1419.23 207.554" stroke="white" stroke-width="2" stroke-miterlimit="10" stroke-linecap="round"/>
<path d="M1459.97 256.315C1454.95 259.591 1448.96 261.5 1442.5 261.5C1433.67 261.5 1425.67 257.917 1419.88 252.13" stroke="white" stroke-width="2" stroke-miterlimit="10" stroke-linecap="round"/>
<path d="M1469.05 211.647C1472.49 216.751 1474.49 222.896 1474.49 229.51C1474.49 238.34 1470.91 246.342 1465.12 252.13" stroke="white" stroke-width="2" stroke-miterlimit="10" stroke-linecap="round"/>
<path d="M1423.91 203.471C1429.15 199.715 1435.57 197.51 1442.5 197.51C1451.19 197.51 1459.07 200.971 1464.84 206.595" stroke="white" stroke-width="2" stroke-miterlimit="10" stroke-linecap="round"/>
<path d="M1411.31 207.095H1419.78V215.577" stroke="white" stroke-width="2" stroke-miterlimit="10" stroke-linecap="round"/>
<path d="M1465.12 198.623V207.095H1456.65" stroke="white" stroke-width="2" stroke-miterlimit="10" stroke-linecap="round"/>
<path d="M1473 252.507H1464.52V244.025" stroke="white" stroke-width="2" stroke-miterlimit="10" stroke-linecap="round"/>
<path d="M1419.95 260.51V252.027H1428.43" stroke="white" stroke-width="2" stroke-miterlimit="10" stroke-linecap="round"/>
<path d="M1.20184 61.4726C1.20184 57.1706 4.60384 55.0286 8.59984 55.0286C11.4438 55.0286 12.6138 55.8925 13.4238 56.4146L12.4878 58.4126C11.8758 57.9986 10.8318 57.2606 8.67184 57.2606C5.86384 57.2606 3.79384 58.6286 3.79384 61.4006C3.79384 64.2626 5.62984 65.5946 8.41984 65.5946C10.7778 65.5946 12.0558 64.8206 12.5598 64.4966L13.3698 66.4946C12.7758 66.9266 11.1558 67.8806 8.18584 67.8806C4.11784 67.8806 1.20184 65.9186 1.20184 61.4726ZM28.5326 67.6646H25.3826L22.4666 63.4706C22.4126 63.4706 22.3586 63.4706 22.3046 63.4706H19.3706V67.6646H16.8326V55.2445H22.2506C26.2286 55.2445 28.0646 56.6485 28.0646 59.3486C28.0646 61.1846 27.0746 62.4986 25.1306 63.0926L28.5326 67.6646ZM25.4546 59.4206C25.4546 58.0705 24.5006 57.4406 22.1606 57.4406H19.3706V61.4186H22.0526C24.3926 61.4186 25.4546 60.6806 25.4546 59.4206ZM39.0509 55.2445L44.6309 67.6646H41.8589L40.4189 64.2986H34.8029L33.3989 67.6646H30.6809L36.2789 55.2445H39.0509ZM39.6989 62.4806L37.6289 57.6206H37.5929L35.5589 62.4806H39.6989ZM56.9885 56.2886L56.1245 58.2506C55.5485 57.9266 54.2345 57.1525 52.2905 57.1525C50.4725 57.1525 49.5545 57.5665 49.5545 58.3766C49.5545 59.3666 50.3285 59.6366 53.1005 60.2846C55.8545 60.9146 57.4205 62.0306 57.4205 64.0826C57.4205 66.4226 55.4765 67.8806 51.9845 67.8806C49.1225 67.8806 47.5925 67.0166 46.7285 66.4586L47.6105 64.3706C48.1865 64.7666 49.6805 65.7206 51.8945 65.7206C53.8385 65.7206 54.8285 65.3246 54.8285 64.3166C54.8285 63.4346 54.1085 62.9666 51.3725 62.3006C48.6545 61.6166 47.0345 60.6986 47.0345 58.5746C47.0345 56.3965 49.0685 55.0286 52.2365 55.0286C54.9365 55.0286 56.2865 55.8566 56.9885 56.2886ZM70.6951 55.2445V67.6646H68.1571V55.2445H70.6951ZM91.0165 55.2445V67.6646H88.5145V59.3846H88.4785L84.1765 67.6646H81.9265L77.6245 59.3846H77.5885V67.6646H75.0865V55.2445H78.1645L83.0425 64.7126H83.0785L87.9565 55.2445H91.0165ZM106.469 59.5286C106.469 62.1746 104.507 63.7766 100.727 63.7766H97.8112V67.6646H95.2732V55.2445H100.673C104.705 55.2445 106.469 56.7566 106.469 59.5286ZM103.859 59.5466C103.859 58.0886 102.869 57.4406 100.601 57.4406H97.8112V61.6886H100.583C102.851 61.6886 103.859 60.9686 103.859 59.5466ZM119.502 55.2445V57.4045H112.356V60.2846H118.818V62.3366H112.356V65.4506H119.682V67.6646H109.8V55.2445H119.502ZM135.06 67.6646H131.91L128.994 63.4706C128.94 63.4706 128.886 63.4706 128.832 63.4706H125.898V67.6646H123.36V55.2445H128.778C132.756 55.2445 134.592 56.6485 134.592 59.3486C134.592 61.1846 133.602 62.4986 131.658 63.0926L135.06 67.6646ZM131.982 59.4206C131.982 58.0705 131.028 57.4406 128.688 57.4406H125.898V61.4186H128.58C130.92 61.4186 131.982 60.6806 131.982 59.4206ZM151.84 61.3646C151.84 65.2706 149.392 67.6646 143.92 67.6646H138.466V55.2445H143.92C149.356 55.2445 151.84 57.2786 151.84 61.3646ZM149.23 61.3826C149.23 58.8266 147.736 57.4406 143.776 57.4406H141.004V65.4326H143.776C147.664 65.4326 149.23 63.9566 149.23 61.3826ZM158.118 55.2445V67.6646H155.58V55.2445H158.118ZM172.212 55.2445V57.4045H165.066V60.2846H171.528V62.3366H165.066V65.4506H172.392V67.6646H162.51V55.2445H172.212ZM187.951 55.2445V57.4406H182.695V67.6646H180.157V57.4406H174.919V55.2445H187.951Z" fill="#3772FF"/>
<rect x="778.734" y="137.665" width="353.194" height="183.335" fill="#3772FF"/>
<path d="M838.656 192.272L846.24 208.832H843.336L841.152 203.912H833.16L831.024 208.832H828.192L835.776 192.272H838.656ZM840.288 201.872L837.192 194.744H837.144L834.048 201.872H840.288ZM850.673 191.792V208.832H848.081V191.792H850.673ZM856.792 192.632V195.2H854.056V192.632H856.792ZM856.72 197.072V208.832H854.128V197.072H856.72ZM872.199 197.072V213.632H869.583V207.704H869.535C869.079 208.184 867.927 209.12 865.071 209.12C861.711 209.12 859.287 206.888 859.287 202.928C859.287 198.872 862.215 196.784 865.479 196.784C868.263 196.784 869.247 198.056 869.655 198.536H869.703V197.072H872.199ZM861.951 202.808C861.951 205.52 863.703 206.816 865.887 206.816C868.095 206.816 869.055 205.808 869.583 205.16V200.72C869.031 200.048 868.071 199.04 865.959 199.04C863.847 199.04 861.951 200.264 861.951 202.808ZM887.6 197.072V208.832H885.104V207.368H885.056C884.528 207.944 883.112 209.12 880.472 209.12C877.4 209.12 875.312 207.512 875.312 203.768V197.072H877.928V203.144C877.928 205.832 879.08 206.792 881.336 206.792C883.16 206.792 884.432 205.784 884.984 205.208V197.072H887.6ZM890.182 205.544C890.182 203.192 892.294 201.92 895.774 201.92C897.166 201.92 898.318 202.04 898.75 202.088V201.92C898.75 200.048 897.91 198.992 895.63 198.992C893.422 198.992 892.03 199.904 891.382 200.528L890.374 198.728C891.142 198.032 892.966 196.784 895.942 196.784C899.806 196.784 901.342 198.872 901.342 202.04V208.832H898.87V207.416H898.822C898.462 207.872 897.334 209.12 894.406 209.12C891.502 209.12 890.182 207.632 890.182 205.544ZM892.798 205.352C892.798 206.336 893.422 206.984 895.054 206.984C897.382 206.984 898.414 205.832 898.75 205.424V203.864C898.198 203.84 897.358 203.792 896.086 203.792C893.734 203.792 892.798 204.392 892.798 205.352ZM906.964 197.072V198.536H907.012C907.588 197.888 908.98 196.784 911.38 196.784C913.348 196.784 914.812 197.432 915.652 198.824C916.42 198.008 918.052 196.784 920.572 196.784C923.716 196.784 925.684 198.344 925.684 202.112V208.832H923.092V202.736C923.092 200.048 921.796 199.064 919.732 199.064C918.052 199.064 916.9 199.928 916.276 200.552C916.348 201.008 916.396 201.536 916.396 202.088V208.832H913.804V202.736C913.804 200.048 912.532 199.064 910.468 199.064C908.836 199.064 907.66 200.072 907.084 200.696V208.832H904.468V197.072H906.964ZM938.706 192.632V195.2H935.97V192.632H938.706ZM938.634 197.072V208.832H936.042V197.072H938.634ZM954.113 191.792V208.832H951.617V207.368H951.569C951.161 207.824 949.985 209.12 947.081 209.12C943.697 209.12 941.201 207.008 941.201 202.928C941.201 198.92 944.009 196.784 947.297 196.784C949.889 196.784 951.017 197.84 951.449 198.248H951.497V191.792H954.113ZM943.865 202.856C943.865 205.496 945.545 206.816 947.801 206.816C950.129 206.816 951.065 205.76 951.497 205.208V200.744C950.993 200.144 950.009 199.04 947.825 199.04C945.569 199.04 943.865 200.36 943.865 202.856ZM828.888 231.88C828.888 227.992 831.792 225.784 835.32 225.784C839.04 225.784 841.032 228.04 841.032 231.664V232.744H831.528C831.792 234.64 833.136 235.816 835.8 235.816C838.176 235.816 839.64 234.856 840.072 234.52L840.96 236.44C840.312 236.944 838.512 238.12 835.272 238.12C831.312 238.12 828.888 235.816 828.888 231.88ZM835.248 227.944C833.256 227.944 831.744 228.952 831.504 230.848H838.536C838.464 229.12 837.24 227.944 835.248 227.944ZM850.827 225.856V228.16C850.803 228.136 850.467 228.136 850.179 228.136C847.923 228.136 846.723 229.216 846.147 230.296V237.832H843.531V226.072H846.027V228.208H846.075C846.627 227.08 847.851 225.856 850.827 225.856ZM851.651 234.544C851.651 232.192 853.763 230.92 857.243 230.92C858.635 230.92 859.787 231.04 860.219 231.088V230.92C860.219 229.048 859.379 227.992 857.099 227.992C854.891 227.992 853.499 228.904 852.851 229.528L851.843 227.728C852.611 227.032 854.435 225.784 857.411 225.784C861.275 225.784 862.811 227.872 862.811 231.04V237.832H860.339V236.416H860.291C859.931 236.872 858.803 238.12 855.875 238.12C852.971 238.12 851.651 236.632 851.651 234.544ZM854.267 234.352C854.267 235.336 854.891 235.984 856.523 235.984C858.851 235.984 859.883 234.832 860.219 234.424V232.864C859.667 232.84 858.827 232.792 857.555 232.792C855.203 232.792 854.267 233.392 854.267 234.352ZM873.094 226.072V228.208H869.158V232.936C869.158 235.096 869.854 235.768 871.606 235.768C872.326 235.768 872.854 235.624 873.094 235.504V237.712C872.83 237.832 872.134 238.048 871.006 238.048C868.438 238.048 866.566 237.064 866.566 233.152V228.208H864.718V226.072H866.566V223.432H869.158V226.072H873.094ZM891.723 227.008L890.835 229.048C890.139 228.616 888.843 227.92 886.995 227.92C885.291 227.92 884.499 228.376 884.499 229.096C884.499 229.816 884.859 230.2 887.643 230.728C890.403 231.256 892.059 232.192 892.059 234.376C892.059 236.728 890.187 238.12 886.971 238.12C883.995 238.12 882.435 237.112 881.835 236.68L882.723 234.52C883.299 234.952 884.571 235.912 886.923 235.912C888.795 235.912 889.491 235.336 889.491 234.64C889.491 233.968 889.155 233.416 886.395 232.864C883.659 232.312 882.051 231.544 882.051 229.216C882.051 227.128 883.971 225.784 886.995 225.784C889.587 225.784 890.955 226.552 891.723 227.008ZM897.386 221.632V224.2H894.65V221.632H897.386ZM897.314 226.072V237.832H894.722V226.072H897.314ZM907.969 226.072V228.208H904.033V232.936C904.033 235.096 904.729 235.768 906.481 235.768C907.201 235.768 907.729 235.624 907.969 235.504V237.712C907.705 237.832 907.009 238.048 905.881 238.048C903.313 238.048 901.441 237.064 901.441 233.152V228.208H899.593V226.072H901.441V223.432H904.033V226.072H907.969ZM829.104 263.544C829.104 261.192 831.216 259.92 834.696 259.92C836.088 259.92 837.24 260.04 837.672 260.088V259.92C837.672 258.048 836.832 256.992 834.552 256.992C832.344 256.992 830.952 257.904 830.304 258.528L829.296 256.728C830.064 256.032 831.888 254.784 834.864 254.784C838.728 254.784 840.264 256.872 840.264 260.04V266.832H837.792V265.416H837.744C837.384 265.872 836.256 267.12 833.328 267.12C830.424 267.12 829.104 265.632 829.104 263.544ZM831.72 263.352C831.72 264.336 832.344 264.984 833.976 264.984C836.304 264.984 837.336 263.832 837.672 263.424V261.864C837.12 261.84 836.28 261.792 835.008 261.792C832.656 261.792 831.72 262.392 831.72 263.352ZM845.886 255.072V256.536H845.934C846.51 255.888 847.902 254.784 850.302 254.784C852.27 254.784 853.734 255.432 854.574 256.824C855.342 256.008 856.974 254.784 859.494 254.784C862.638 254.784 864.606 256.344 864.606 260.112V266.832H862.014V260.736C862.014 258.048 860.718 257.064 858.654 257.064C856.974 257.064 855.822 257.928 855.198 258.552C855.27 259.008 855.318 259.536 855.318 260.088V266.832H852.726V260.736C852.726 258.048 851.454 257.064 849.39 257.064C847.758 257.064 846.582 258.072 846.006 258.696V266.832H843.39V255.072H845.886ZM866.998 260.88C866.998 256.992 869.902 254.784 873.43 254.784C877.15 254.784 879.142 257.04 879.142 260.664V261.744H869.638C869.902 263.64 871.246 264.816 873.91 264.816C876.286 264.816 877.75 263.856 878.182 263.52L879.07 265.44C878.422 265.944 876.622 267.12 873.382 267.12C869.422 267.12 866.998 264.816 866.998 260.88ZM873.358 256.944C871.366 256.944 869.854 257.952 869.614 259.848H876.646C876.574 258.12 875.35 256.944 873.358 256.944ZM888.797 255.072V257.208H884.861V261.936C884.861 264.096 885.557 264.768 887.309 264.768C888.029 264.768 888.557 264.624 888.797 264.504V266.712C888.533 266.832 887.837 267.048 886.709 267.048C884.141 267.048 882.269 266.064 882.269 262.152V257.208H880.421V255.072H882.269V252.432H884.861V255.072H888.797ZM897.466 260.88C897.466 256.992 900.37 254.784 903.898 254.784C907.618 254.784 909.61 257.04 909.61 260.664V261.744H900.106C900.37 263.64 901.714 264.816 904.378 264.816C906.754 264.816 908.218 263.856 908.65 263.52L909.538 265.44C908.89 265.944 907.09 267.12 903.85 267.12C899.89 267.12 897.466 264.816 897.466 260.88ZM903.826 256.944C901.834 256.944 900.322 257.952 900.082 259.848H907.114C907.042 258.12 905.818 256.944 903.826 256.944ZM914.605 255.072V256.536H914.653C915.205 255.96 916.621 254.784 919.237 254.784C922.261 254.784 924.397 256.416 924.397 260.112V266.832H921.781V260.736C921.781 258.048 920.509 257.064 918.397 257.064C916.573 257.064 915.301 258.12 914.725 258.696V266.832H912.109V255.072H914.605ZM930.339 250.632V253.2H927.603V250.632H930.339ZM930.267 255.072V266.832H927.675V255.072H930.267ZM936.05 255.072V256.536H936.098C936.674 255.888 938.066 254.784 940.466 254.784C942.434 254.784 943.898 255.432 944.738 256.824C945.506 256.008 947.138 254.784 949.658 254.784C952.802 254.784 954.77 256.344 954.77 260.112V266.832H952.178V260.736C952.178 258.048 950.882 257.064 948.818 257.064C947.138 257.064 945.986 257.928 945.362 258.552C945.434 259.008 945.482 259.536 945.482 260.088V266.832H942.89V260.736C942.89 258.048 941.618 257.064 939.554 257.064C937.922 257.064 936.746 258.072 936.17 258.696V266.832H933.554V255.072H936.05Z" fill="white"/>
<path d="M1055.33 223.696C1055.36 220.555 1052.84 217.985 1049.7 217.954C1046.56 217.924 1043.99 220.446 1043.96 223.587C1043.93 226.728 1046.45 229.298 1049.59 229.329C1052.73 229.359 1055.3 226.837 1055.33 223.696Z" stroke="white" stroke-width="2" stroke-miterlimit="10"/>
<path d="M1055.33 197.407C1055.36 194.266 1052.84 191.696 1049.7 191.666C1046.56 191.635 1043.99 194.157 1043.96 197.298C1043.93 200.439 1046.45 203.01 1049.59 203.04C1052.73 203.07 1055.3 200.548 1055.33 197.407Z" stroke="white" stroke-width="2" stroke-miterlimit="10"/>
<path d="M1055.33 250.706C1055.36 247.565 1052.84 244.995 1049.7 244.964C1046.56 244.934 1043.99 247.456 1043.96 250.597C1043.93 253.738 1046.45 256.308 1049.59 256.339C1052.73 256.369 1055.3 253.847 1055.33 250.706Z" stroke="white" stroke-width="2" stroke-miterlimit="10"/>
<path d="M1028.54 223.695C1028.57 220.554 1026.05 217.983 1022.91 217.953C1019.77 217.923 1017.2 220.445 1017.17 223.586C1017.14 226.727 1019.66 229.297 1022.8 229.327C1025.94 229.358 1028.51 226.836 1028.54 223.695Z" stroke="white" stroke-width="2" stroke-miterlimit="10"/>
<path d="M1028.54 197.406C1028.57 194.265 1026.05 191.694 1022.91 191.664C1019.77 191.634 1017.2 194.156 1017.17 197.297C1017.14 200.438 1019.66 203.008 1022.8 203.038C1025.94 203.069 1028.51 200.547 1028.54 197.406Z" stroke="white" stroke-width="2" stroke-miterlimit="10"/>
<path d="M1028.54 250.705C1028.57 247.564 1026.05 244.993 1022.91 244.963C1019.77 244.933 1017.2 247.455 1017.17 250.596C1017.14 253.737 1019.66 256.307 1022.8 256.337C1025.94 256.367 1028.51 253.846 1028.54 250.705Z" stroke="white" stroke-width="2" stroke-miterlimit="10"/>
<path d="M1081.84 223.697C1081.87 220.556 1079.35 217.986 1076.21 217.956C1073.07 217.926 1070.5 220.447 1070.47 223.588C1070.44 226.729 1072.96 229.3 1076.1 229.33C1079.24 229.36 1081.81 226.838 1081.84 223.697Z" stroke="white" stroke-width="2" stroke-miterlimit="10"/>
<path d="M1081.84 197.405C1081.87 194.264 1079.35 191.694 1076.21 191.664C1073.07 191.633 1070.5 194.155 1070.47 197.296C1070.44 200.437 1072.96 203.008 1076.1 203.038C1079.24 203.068 1081.81 200.546 1081.84 197.405Z" stroke="white" stroke-width="2" stroke-miterlimit="10"/>
<path d="M1081.84 250.704C1081.87 247.563 1079.35 244.993 1076.21 244.962C1073.07 244.932 1070.5 247.454 1070.47 250.595C1070.44 253.736 1072.96 256.306 1076.1 256.337C1079.24 256.367 1081.81 253.845 1081.84 250.704Z" stroke="white" stroke-width="2" stroke-miterlimit="10"/>
<path d="M1027.06 201.759L1045.29 219.989" stroke="white" stroke-width="2" stroke-miterlimit="10"/>
<path d="M1053.3 228.001L1072.08 246.785" stroke="white" stroke-width="2" stroke-miterlimit="10"/>
<path d="M1027.06 246.785L1045.74 228.109" stroke="white" stroke-width="2" stroke-miterlimit="10"/>
<path d="M1054.08 219.761L1072.08 201.759" stroke="white" stroke-width="2" stroke-miterlimit="10"/>
<path d="M1028.72 223.778H1043.52" stroke="white" stroke-width="2" stroke-miterlimit="10"/>
<path d="M1055.45 223.778H1070.42" stroke="white" stroke-width="2" stroke-miterlimit="10"/>
<path d="M1049.57 244.636V229.834" stroke="white" stroke-width="2" stroke-miterlimit="10"/>
<path d="M1049.57 217.902V202.924" stroke="white" stroke-width="2" stroke-miterlimit="10"/>
<line x1="1" y1="1.0459" x2="1521" y2="1.0459" stroke="#080708" stroke-width="2"/>
<rect x="389.662" y="137.665" width="353.194" height="183.335" fill="#3772FF"/>
<path d="M455.224 207.936C455.224 211.488 452.632 213.48 447.664 213.48H443.44V219H440.8V202.44H447.616C452.872 202.44 455.224 204.336 455.224 207.936ZM452.488 207.984C452.488 205.776 450.976 204.768 447.544 204.768H443.44V211.224H447.544C451 211.224 452.488 210.12 452.488 207.984ZM459.936 201.96V208.584H459.984C460.536 208.056 461.855 206.952 464.448 206.952C467.472 206.952 469.608 208.584 469.608 212.28V219H466.992V212.904C466.992 210.216 465.744 209.232 463.608 209.232C461.784 209.232 460.512 210.288 459.936 210.864V219H457.32V201.96H459.936ZM472.188 215.712C472.188 213.36 474.3 212.088 477.78 212.088C479.172 212.088 480.324 212.208 480.756 212.256V212.088C480.756 210.216 479.916 209.16 477.636 209.16C475.428 209.16 474.036 210.072 473.388 210.696L472.38 208.896C473.148 208.2 474.972 206.952 477.948 206.952C481.812 206.952 483.348 209.04 483.348 212.208V219H480.876V217.584H480.828C480.468 218.04 479.34 219.288 476.412 219.288C473.508 219.288 472.188 217.8 472.188 215.712ZM474.804 215.52C474.804 216.504 475.428 217.152 477.06 217.152C479.388 217.152 480.42 216 480.756 215.592V214.032C480.204 214.008 479.364 213.96 478.092 213.96C475.74 213.96 474.804 214.56 474.804 215.52ZM495.69 208.176L494.802 210.216C494.106 209.784 492.81 209.088 490.962 209.088C489.258 209.088 488.466 209.544 488.466 210.264C488.466 210.984 488.826 211.368 491.61 211.896C494.37 212.424 496.026 213.36 496.026 215.544C496.026 217.896 494.154 219.288 490.938 219.288C487.962 219.288 486.402 218.28 485.802 217.848L486.69 215.688C487.266 216.12 488.538 217.08 490.89 217.08C492.762 217.08 493.458 216.504 493.458 215.808C493.458 215.136 493.122 214.584 490.362 214.032C487.626 213.48 486.018 212.712 486.018 210.384C486.018 208.296 487.938 206.952 490.962 206.952C493.554 206.952 494.922 207.72 495.69 208.176ZM497.777 213.048C497.777 209.16 500.681 206.952 504.209 206.952C507.929 206.952 509.921 209.208 509.921 212.832V213.912H500.417C500.681 215.808 502.025 216.984 504.689 216.984C507.065 216.984 508.529 216.024 508.961 215.688L509.849 217.608C509.201 218.112 507.401 219.288 504.161 219.288C500.201 219.288 497.777 216.984 497.777 213.048ZM504.137 209.112C502.145 209.112 500.633 210.12 500.393 212.016H507.425C507.353 210.288 506.129 209.112 504.137 209.112ZM515.179 201.96V219H512.587V201.96H515.179ZM521.226 201.96V219H518.634V201.96H521.226ZM536.801 207.24V219H534.305V217.536H534.257C533.729 218.112 532.313 219.288 529.673 219.288C526.601 219.288 524.513 217.68 524.513 213.936V207.24H527.129V213.312C527.129 216 528.281 216.96 530.537 216.96C532.361 216.96 533.633 215.952 534.185 215.376V207.24H536.801ZM549.128 208.176L548.24 210.216C547.544 209.784 546.248 209.088 544.4 209.088C542.696 209.088 541.904 209.544 541.904 210.264C541.904 210.984 542.264 211.368 545.048 211.896C547.808 212.424 549.464 213.36 549.464 215.544C549.464 217.896 547.592 219.288 544.376 219.288C541.4 219.288 539.84 218.28 539.24 217.848L540.128 215.688C540.704 216.12 541.976 217.08 544.328 217.08C546.2 217.08 546.896 216.504 546.896 215.808C546.896 215.136 546.56 214.584 543.8 214.032C541.064 213.48 539.456 212.712 539.456 210.384C539.456 208.296 541.376 206.952 544.4 206.952C546.992 206.952 548.36 207.72 549.128 208.176ZM452.848 236.24V248H450.352V246.536H450.304C449.776 247.112 448.36 248.288 445.72 248.288C442.648 248.288 440.56 246.68 440.56 242.936V236.24H443.176V242.312C443.176 245 444.328 245.96 446.584 245.96C448.408 245.96 449.68 244.952 450.232 244.376V236.24H452.848ZM463.326 236.24V238.376H459.39V243.104C459.39 245.264 460.086 245.936 461.838 245.936C462.558 245.936 463.086 245.792 463.326 245.672V247.88C463.062 248 462.366 248.216 461.238 248.216C458.67 248.216 456.798 247.232 456.798 243.32V238.376H454.95V236.24H456.798V233.6H459.39V236.24H463.326ZM485.628 242.072C485.628 246.008 483.06 248.288 479.628 248.288C476.844 248.288 475.764 247.016 475.356 246.536H475.308V248H472.812V230.96H475.428V237.416H475.476C475.98 236.936 477.252 235.952 479.916 235.952C483.372 235.952 485.628 238.16 485.628 242.072ZM482.94 242.12C482.94 239.624 481.5 238.208 479.1 238.208C477.084 238.208 475.86 239.264 475.428 239.84V244.352C475.86 244.88 477.036 245.984 479.004 245.984C481.332 245.984 482.94 244.664 482.94 242.12ZM490.734 230.96V248H488.142V230.96H490.734ZM493.493 244.712C493.493 242.36 495.605 241.088 499.085 241.088C500.477 241.088 501.629 241.208 502.061 241.256V241.088C502.061 239.216 501.221 238.16 498.941 238.16C496.733 238.16 495.341 239.072 494.693 239.696L493.685 237.896C494.453 237.2 496.277 235.952 499.253 235.952C503.117 235.952 504.653 238.04 504.653 241.208V248H502.181V246.584H502.133C501.773 247.04 500.645 248.288 497.717 248.288C494.813 248.288 493.493 246.8 493.493 244.712ZM496.109 244.52C496.109 245.504 496.733 246.152 498.365 246.152C500.693 246.152 501.725 245 502.061 244.592V243.032C501.509 243.008 500.669 242.96 499.397 242.96C497.045 242.96 496.109 243.56 496.109 244.52ZM510.275 236.24V237.704H510.323C510.875 237.128 512.291 235.952 514.907 235.952C517.931 235.952 520.067 237.584 520.067 241.28V248H517.451V241.904C517.451 239.216 516.179 238.232 514.067 238.232C512.243 238.232 510.971 239.288 510.395 239.864V248H507.779V236.24H510.275ZM535.369 230.96V248H532.873V246.536H532.825C532.417 246.992 531.241 248.288 528.337 248.288C524.953 248.288 522.457 246.176 522.457 242.096C522.457 238.088 525.265 235.952 528.553 235.952C531.145 235.952 532.273 237.008 532.705 237.416H532.753V230.96H535.369ZM525.121 242.024C525.121 244.664 526.801 245.984 529.057 245.984C531.385 245.984 532.321 244.928 532.753 244.376V239.912C532.249 239.312 531.265 238.208 529.081 238.208C526.825 238.208 525.121 239.528 525.121 242.024ZM541.384 231.8V234.368H538.648V231.8H541.384ZM541.312 236.24V248H538.72V236.24H541.312ZM551.967 236.24V238.376H548.031V243.104C548.031 245.264 548.727 245.936 550.479 245.936C551.199 245.936 551.727 245.792 551.967 245.672V247.88C551.703 248 551.007 248.216 549.879 248.216C547.311 248.216 545.439 247.232 545.439 243.32V238.376H543.591V236.24H545.439V233.6H548.031V236.24H551.967Z" fill="white"/>
<path d="M681.818 243.432C676.088 249.932 667.769 254.018 658.51 254.018C641.228 254.018 627.215 239.77 627.215 222.192C627.215 204.613 641.228 190.368 658.514 190.368C671.452 190.368 682.558 198.356 687.324 209.746" stroke="white" stroke-width="2" stroke-linecap="round" stroke-linejoin="round"/>
<path d="M657.133 238.238C652.166 238.097 649.59 236.227 648.256 235.245L649.269 232.812C650.374 233.699 652.995 235.711 657.638 235.711C662.28 235.711 664.812 233.885 664.812 230.379C664.812 227.058 662.512 225.468 657.269 223.552C651.98 221.588 648.807 219.715 648.807 214.899C648.807 210.549 652.166 207.883 657.133 207.556V203.206H659.479V207.556C663.435 207.836 665.505 209.381 666.654 210.222L665.549 212.513C664.4 211.717 662.237 210.08 658.328 210.08C654.419 210.08 651.611 211.578 651.611 214.71C651.611 218.405 654.004 219.529 659.383 221.399C664.855 223.315 667.662 225.654 667.662 230.284C667.662 234.914 664.672 237.628 659.476 238.14V242.585H657.13V238.235L657.133 238.238Z" fill="white"/>
<path d="M684.39 222.241V231.546H677.142L689.223 243.835L700.962 231.546H694.06V214.867H686.808" stroke="white" stroke-width="2" stroke-linecap="round" stroke-linejoin="round"/>
<rect x="0.589844" y="137.665" width="353.194" height="183.335" fill="#3772FF"/>
<path d="M65.2426 196.892V213.452H62.6026V201.26H62.5546L55.9546 213.452H53.5786L46.9786 201.26H46.9306V213.452H44.3146V196.892H47.5306L54.7546 210.284H54.8026L62.0266 196.892H65.2426ZM68.0857 210.164C68.0857 207.812 70.1977 206.54 73.6777 206.54C75.0697 206.54 76.2217 206.66 76.6537 206.708V206.54C76.6537 204.668 75.8137 203.612 73.5337 203.612C71.3257 203.612 69.9337 204.524 69.2857 205.148L68.2777 203.348C69.0457 202.652 70.8697 201.404 73.8457 201.404C77.7097 201.404 79.2457 203.492 79.2457 206.66V213.452H76.7737V212.036H76.7257C76.3657 212.492 75.2377 213.74 72.3097 213.74C69.4057 213.74 68.0857 212.252 68.0857 210.164ZM70.7017 209.972C70.7017 210.956 71.3257 211.604 72.9577 211.604C75.2857 211.604 76.3177 210.452 76.6537 210.044V208.484C76.1017 208.46 75.2617 208.412 73.9897 208.412C71.6377 208.412 70.7017 209.012 70.7017 209.972ZM94.6595 201.692V213.452H92.1635V211.988H92.1155C91.5875 212.564 90.1715 213.74 87.5315 213.74C84.4595 213.74 82.3715 212.132 82.3715 208.388V201.692H84.9875V207.764C84.9875 210.452 86.1395 211.412 88.3955 211.412C90.2195 211.412 91.4915 210.404 92.0435 209.828V201.692H94.6595ZM105.066 201.476V203.78C105.042 203.756 104.706 203.756 104.418 203.756C102.162 203.756 100.962 204.836 100.386 205.916V213.452H97.77V201.692H100.266V203.828H100.314C100.866 202.7 102.09 201.476 105.066 201.476ZM109.719 197.252V199.82H106.983V197.252H109.719ZM109.647 201.692V213.452H107.055V201.692H109.647ZM122.15 202.628L121.262 204.668C120.566 204.236 119.27 203.54 117.422 203.54C115.718 203.54 114.926 203.996 114.926 204.716C114.926 205.436 115.286 205.82 118.07 206.348C120.83 206.876 122.486 207.812 122.486 209.996C122.486 212.348 120.614 213.74 117.398 213.74C114.422 213.74 112.862 212.732 112.262 212.3L113.15 210.14C113.726 210.572 114.998 211.532 117.35 211.532C119.222 211.532 119.918 210.956 119.918 210.26C119.918 209.588 119.582 209.036 116.822 208.484C114.086 207.932 112.478 207.164 112.478 204.836C112.478 202.748 114.398 201.404 117.422 201.404C120.014 201.404 121.382 202.172 122.15 202.628ZM46.9066 226.252V228.82H44.1706V226.252H46.9066ZM46.8346 230.692V242.452H44.2426V230.692H46.8346ZM62.9615 236.524C62.9615 240.364 60.4895 242.74 56.8895 242.74C54.3215 242.74 53.2415 241.756 52.7855 241.324H52.7375V247.252H50.1215V230.692H52.6175V232.156H52.6655C53.1455 231.628 54.4895 230.404 57.2975 230.404C60.6095 230.404 62.9615 232.66 62.9615 236.524ZM60.2735 236.548C60.2735 234.124 58.8575 232.66 56.4815 232.66C54.3935 232.66 53.1695 233.764 52.7375 234.34V238.804C53.1695 239.356 54.2495 240.436 56.3375 240.436C58.7855 240.436 60.2735 239.116 60.2735 236.548ZM74.5485 231.628L73.6605 233.668C72.9645 233.236 71.6685 232.54 69.8205 232.54C68.1165 232.54 67.3245 232.996 67.3245 233.716C67.3245 234.436 67.6845 234.82 70.4685 235.348C73.2285 235.876 74.8845 236.812 74.8845 238.996C74.8845 241.348 73.0125 242.74 69.7965 242.74C66.8205 242.74 65.2605 241.732 64.6605 241.3L65.5485 239.14C66.1245 239.572 67.3965 240.532 69.7485 240.532C71.6205 240.532 72.3165 239.956 72.3165 239.26C72.3165 238.588 71.9805 238.036 69.2205 237.484C66.4845 236.932 64.8765 236.164 64.8765 233.836C64.8765 231.748 66.7965 230.404 69.8205 230.404C72.4125 230.404 73.7805 231.172 74.5485 231.628ZM89.6673 230.692V242.452H87.1713V240.988H87.1233C86.5953 241.564 85.1793 242.74 82.5393 242.74C79.4673 242.74 77.3793 241.132 77.3793 237.388V230.692H79.9953V236.764C79.9953 239.452 81.1473 240.412 83.4033 240.412C85.2273 240.412 86.4993 239.404 87.0513 238.828V230.692H89.6673ZM95.2738 230.692V232.156H95.3218C95.8978 231.508 97.2898 230.404 99.6898 230.404C101.658 230.404 103.122 231.052 103.962 232.444C104.73 231.628 106.362 230.404 108.882 230.404C112.026 230.404 113.994 231.964 113.994 235.732V242.452H111.402V236.356C111.402 233.668 110.106 232.684 108.042 232.684C106.362 232.684 105.21 233.548 104.586 234.172C104.658 234.628 104.706 235.156 104.706 235.708V242.452H102.114V236.356C102.114 233.668 100.842 232.684 98.7778 232.684C97.1458 232.684 95.9698 233.692 95.3938 234.316V242.452H92.7778V230.692H95.2738ZM46.8346 254.412V271.452H44.2426V254.412H46.8346ZM52.9535 255.252V257.82H50.2175V255.252H52.9535ZM52.8815 259.692V271.452H50.2895V259.692H52.8815ZM69.0564 265.524C69.0564 269.46 66.4884 271.74 63.0564 271.74C60.2724 271.74 59.1924 270.468 58.7844 269.988H58.7364V271.452H56.2404V254.412H58.8564V260.868H58.9044C59.4084 260.388 60.6804 259.404 63.3444 259.404C66.8004 259.404 69.0564 261.612 69.0564 265.524ZM66.3684 265.572C66.3684 263.076 64.9284 261.66 62.5284 261.66C60.5124 261.66 59.2884 262.716 58.8564 263.292V267.804C59.2884 268.332 60.4644 269.436 62.4324 269.436C64.7604 269.436 66.3684 268.116 66.3684 265.572ZM70.7525 265.5C70.7525 261.612 73.6565 259.404 77.1845 259.404C80.9045 259.404 82.8965 261.66 82.8965 265.284V266.364H73.3925C73.6565 268.26 75.0005 269.436 77.6645 269.436C80.0405 269.436 81.5045 268.476 81.9365 268.14L82.8245 270.06C82.1765 270.564 80.3765 271.74 77.1365 271.74C73.1765 271.74 70.7525 269.436 70.7525 265.5ZM77.1125 261.564C75.1205 261.564 73.6085 262.572 73.3685 264.468H80.4005C80.3285 262.74 79.1045 261.564 77.1125 261.564ZM92.691 259.476V261.78C92.667 261.756 92.331 261.756 92.043 261.756C89.787 261.756 88.587 262.836 88.011 263.916V271.452H85.395V259.692H87.891V261.828H87.939C88.491 260.7 89.715 259.476 92.691 259.476ZM106.576 265.572C106.576 269.724 103.432 271.74 99.8559 271.74C96.2559 271.74 93.1119 269.724 93.1119 265.572C93.1119 261.42 96.2559 259.404 99.8559 259.404C103.432 259.404 106.576 261.42 106.576 265.572ZM103.912 265.572C103.912 263.028 102.208 261.66 99.8559 261.66C97.4799 261.66 95.7759 263.028 95.7759 265.572C95.7759 268.116 97.4799 269.436 99.8559 269.436C102.208 269.436 103.912 268.116 103.912 265.572Z" fill="white"/>
</svg>
