<svg width="299" height="51" viewBox="0 0 299 51" fill="none" xmlns="http://www.w3.org/2000/svg">
<g clip-path="url(#clip0_4_219)">
<path d="M0 0V37.6325L14.5889 51V12.7863H47.2333V0H0Z" fill="white"/>
<path d="M50.9889 38.0684H47.2333V15.9829H34.3778V38.0684H30.9111V15.9829H18.0555V50.8547H65.5778V13.0769L50.9889 0V38.0684Z" fill="white"/>
<path d="M85.6772 36.8348H83.2217V17.51H94.055C97.8106 17.51 99.8328 19.1083 99.8328 22.3049V24.4844C99.9772 26.8092 98.3883 28.8433 96.0772 28.9886C96.0772 28.9886 96.0772 28.9886 95.9328 28.9886L100.699 36.8348H98.0995L93.4772 29.2792H85.6772V36.8348ZM97.6661 24.0485V22.7408C97.6661 20.2707 96.7995 19.2536 93.6217 19.2536H85.6772V27.3904H93.7661C96.7995 27.3904 97.6661 26.3733 97.6661 24.0485Z" fill="white"/>
<path d="M106.333 32.04V22.3049C106.333 18.963 108.355 17.3647 112.111 17.3647H118.466C122.222 17.3647 124.244 18.963 124.244 22.1596V32.04C124.244 35.2365 122.077 36.8348 118.466 36.8348H112.111C108.355 36.8348 106.333 35.3818 106.333 32.04ZM108.788 22.5955V31.6041C108.788 34.3647 109.655 34.9459 112.688 34.9459H117.888C121.066 34.9459 121.788 34.3647 121.788 31.6041V22.5955C121.788 19.8348 120.922 19.3989 117.888 19.3989H112.688C109.511 19.3989 108.788 19.8348 108.788 22.5955Z" fill="white"/>
<path d="M138.544 26.3733H148.222L147.788 36.2536C147.788 36.5442 147.644 36.6895 147.355 36.6895C147.355 36.6895 141.722 36.9801 136.377 36.9801C132.622 36.9801 130.599 35.2365 130.599 32.04V22.3049C130.599 19.1083 132.766 17.3647 136.377 17.3647C142.733 17.3647 146.633 17.51 146.633 17.51V19.2536H136.955C133.777 19.2536 133.055 20.2707 133.055 22.5955V31.6041C133.055 34.0741 134.211 34.9459 136.955 34.9459H145.622L145.911 28.2622L138.688 28.1169L138.544 26.3733Z" fill="white"/>
<path d="M154.433 17.51H169.166V19.3989H156.888V26.0827H168.011V27.9715H156.888V34.9459H169.166V36.8348H154.433V17.51Z" fill="white"/>
<path d="M177.833 36.8348H175.377V17.51H186.211C189.966 17.51 191.988 19.1083 191.988 22.3049V24.4844C192.133 26.8092 190.544 28.8433 188.233 28.9886C188.088 28.9886 188.088 28.9886 187.944 28.9886L192.711 36.8348H190.111L185.777 29.2792H177.833V36.8348ZM189.822 24.0485V22.7408C189.822 20.2707 188.955 19.3989 185.922 19.3989H177.833V27.5357H185.922C189.099 27.3904 189.822 26.3733 189.822 24.0485Z" fill="white"/>
<path d="M231.422 17.51H235.033C235.033 17.51 230.555 35.6724 230.411 36.3989C230.411 36.6895 230.122 36.8348 229.833 36.8348H224.055C223.766 36.8348 223.622 36.6895 223.477 36.3989L220.588 21.2878H220.299C220.299 21.2878 217.555 35.963 217.411 36.3989C217.411 36.6895 217.122 36.8348 216.833 36.8348H211.055C210.766 36.8348 210.477 36.6895 210.477 36.3989C210.333 35.6724 205.855 17.51 205.855 17.51H209.466L213.222 34.0741H214.522L217.988 17.51H223.044L226.511 34.0741H227.811L231.422 17.51Z" fill="white"/>
<path d="M240.088 17.51H255.399V19.9801H243.411V25.7921H254.099V28.2621H243.411V34.2194H255.399V36.8348H240.088V17.51Z" fill="white"/>
<path d="M276.488 19.9801H266.955C264.211 19.9801 263.633 20.2707 263.633 22.3049V23.0314C263.633 24.0485 263.922 24.1938 265.366 24.4844L273.888 25.9374C276.777 26.3733 277.788 27.3904 277.788 29.7152V32.3306C277.788 35.8177 276.199 37.1254 271.144 37.1254C265.655 37.1254 260.311 36.8348 260.311 36.8348V34.3647H270.855C273.744 34.3647 274.611 33.7835 274.611 31.7494V30.0058C274.611 29.134 274.322 28.5528 273.022 28.2622C271.144 27.9716 266.377 27.2451 265.077 26.9545C262.044 26.5186 260.455 26.228 260.455 23.4673V22.0143C260.455 18.5271 262.188 17.3647 267.099 17.3647C272.588 17.3647 276.488 17.6553 276.488 17.6553V19.9801Z" fill="white"/>
<path d="M299.022 19.8348H291.799V36.6895H288.477V19.8348H281.111V17.51H299.022V19.8348Z" fill="white"/>
</g>
<defs>
<clipPath id="clip0_4_219">
<rect width="299" height="51" fill="white"/>
</clipPath>
</defs>
</svg>
