<svg width="155" height="103" viewBox="0 0 155 103" fill="none" xmlns="http://www.w3.org/2000/svg">
<g clip-path="url(#clip0_1_178)">
<mask id="mask0_1_178" style="mask-type:luminance" maskUnits="userSpaceOnUse" x="-24" y="-64" width="193" height="258">
<path d="M-23.386 -63.0459H168.156V193.235H-23.386V-63.0459Z" fill="white"/>
</mask>
<g mask="url(#mask0_1_178)">
<path fill-rule="evenodd" clip-rule="evenodd" d="M19.0013 86.7188H21.0183V101.666H19.0013V86.7188ZM59.7868 88.9465L62.0096 95.5442H57.4084L59.7421 88.9465H59.7868ZM58.7668 86.7188L53.1224 101.666H55.2076L56.7483 97.3442H62.7339L64.2302 101.666H66.3854L61.0334 86.7188H58.7668ZM41.491 86.7188V92.9061H49.2669V86.7188H51.2389V101.666H49.2669V94.6805H41.491V101.666H39.451V86.7188H41.491ZM27.2766 89.6074C26.3483 90.6537 25.8937 92.1324 25.8937 94.0433C25.8937 98.206 27.5036 100.3 30.7908 100.3C33.1024 100.3 34.5309 98.9361 35.0752 96.1612H37.0255C36.6622 98.5488 35.5966 100.256 33.8506 101.233C32.8754 101.803 31.7421 102.075 30.4964 102.075C28.6359 102.075 27.0946 101.46 25.8937 100.256C24.4877 98.8441 23.8081 96.7955 23.8081 94.1112C23.8081 91.7919 24.4191 89.9018 25.6667 88.4929C26.9143 87.0126 28.6148 86.3084 30.7231 86.3084C32.5351 86.3084 34.0096 86.8319 35.1429 87.8551C36.1172 88.7188 36.6842 89.8358 36.8882 91.1989H34.9169C34.5089 89.1061 33.1024 88.0829 30.7231 88.0829C29.3172 88.0829 28.1823 88.5829 27.2766 89.6074ZM13.6723 89.1061L9.47849 101.666H7.48357L3.33541 89.1061H3.24474L3.33541 101.666H1.36316V86.7188H4.24172L8.45757 99.3452H8.54919L12.766 86.7188H15.6452V101.666H13.6723L13.7189 89.1061H13.6723ZM148.615 88.0829C146.304 88.0829 145.17 88.9465 145.17 90.6989C145.17 91.6779 145.781 92.2929 146.961 92.5649L151.224 93.5423C153.445 94.1112 154.578 95.4321 154.578 97.5233C154.578 99.1616 153.944 100.323 152.629 101.119C151.608 101.778 150.316 102.075 148.774 102.075C146.848 102.075 145.327 101.575 144.263 100.641C143.242 99.7318 142.767 98.4786 142.767 96.8429H144.648C144.648 98.0932 145.102 99.004 145.963 99.6171C146.688 100.097 147.596 100.323 148.728 100.323C151.337 100.323 152.629 99.504 152.629 97.7979C152.629 97.0239 152.401 96.4559 151.972 96.1134C151.563 95.7719 150.724 95.4321 149.477 95.1819L146.417 94.4531C144.308 93.9527 143.242 92.7914 143.242 90.9263C143.242 89.676 143.673 88.606 144.467 87.7862C145.396 86.7858 146.688 86.3084 148.39 86.3084C152.062 86.3084 153.989 87.9019 154.216 91.0862H152.311C152.288 90.0623 151.834 89.265 151.041 88.7188C150.384 88.3113 149.568 88.0829 148.615 88.0829ZM130.591 88.425H135.579C137.392 88.425 138.301 89.265 138.301 90.9263C138.301 92.677 137.28 93.5423 135.286 93.5423H130.591V88.425ZM128.596 86.7188V101.666H130.591V95.2514H135.468C137.235 95.2514 138.141 96.1134 138.141 97.9113C138.141 99.7318 138.254 100.982 138.459 101.666H140.953V101.324C140.455 101.051 140.226 100.551 140.226 99.8462L140.069 97.1376C140.044 96.2051 139.842 95.4763 139.479 95.0672C139.275 94.7933 138.868 94.5207 138.301 94.2932C139.66 93.4981 140.34 92.2929 140.34 90.7437C140.34 88.0367 138.709 86.7188 135.468 86.7188H128.596ZM118.69 88.0829C120.277 88.0829 121.522 88.6979 122.476 89.857C123.405 90.9712 123.858 92.406 123.858 94.1785C123.858 95.9783 123.405 97.457 122.476 98.5488C121.522 99.7318 120.277 100.3 118.69 100.3C117.057 100.3 115.81 99.7318 114.903 98.5488C113.974 97.457 113.52 95.9783 113.52 94.1785C113.52 92.406 113.974 90.9712 114.903 89.857C115.856 88.6979 117.102 88.0829 118.69 88.0829ZM112.976 89.0372C111.956 90.4711 111.433 92.1766 111.433 94.1785C111.433 96.2051 111.956 97.9113 112.976 99.3452C114.267 101.165 116.149 102.075 118.69 102.075C121.229 102.075 123.109 101.165 124.358 99.3452C125.424 97.9113 125.943 96.2051 125.943 94.1785C125.943 92.1766 125.424 90.4711 124.358 89.0372C123.109 87.2189 121.229 86.3084 118.69 86.3084C116.149 86.3084 114.267 87.2189 112.976 89.0372ZM101.414 86.7188V93.9527L108.599 86.7188H111.389L105.2 92.7914L111.549 101.666H108.984L103.727 94.1564L101.414 96.4338V101.666H99.3728V86.7188H101.414ZM84.0692 86.7188V99.8676H91.6418V101.666H82.1199V86.7188H84.0692ZM79.3087 88.4929H70.4659V93.088H78.6064V94.8621H70.4659V99.8676H79.4214V101.666H68.4716V86.7188H79.3087V88.4929Z" fill="#231F20"/>
<path d="M77.9709 68.898C66.8866 68.898 57.1761 62.9004 51.8799 53.9735H57.8988L58.0268 38.4893L64.7142 53.9735H71.2707L77.9699 38.4893V53.9735H85.1569L85.4145 43.3926L87.7287 41.4573L97.8874 53.9735H104.06C98.7637 62.9004 89.0545 68.898 77.9709 68.898ZM51.2114 24.1013V52.7917C48.9257 48.5124 47.6248 43.6303 47.6248 38.446C47.6248 33.2624 48.9257 28.3777 51.2114 24.1013ZM77.9709 7.99562C89.0899 7.99562 98.825 14.0314 104.109 23.0054H96.7305L85.5428 33.4575V23.0054H76.0289L68.1856 42.2313L60.7279 23.0054H51.8298C57.1157 14.0314 66.8518 7.99562 77.9709 7.99562ZM108.315 38.446C108.315 43.282 107.181 47.8557 105.174 51.9219L93.3862 36.6828L105.058 24.7455C107.136 28.8678 108.315 33.5193 108.315 38.446ZM77.9709 0.769447C57.2339 0.769447 40.4235 17.6395 40.4235 38.446C40.4235 59.2545 57.2339 76.1245 77.9709 76.1245C98.705 76.1245 115.516 59.2545 115.516 38.446C115.516 17.6395 98.705 0.769447 77.9709 0.769447Z" fill="#231F20"/>
</g>
</g>
<defs>
<clipPath id="clip0_1_178">
<rect width="154" height="102" fill="white" transform="translate(0.970825 0.422363)"/>
</clipPath>
</defs>
</svg>
